<svg width="100" height="100" xmlns="http://www.w3.org/2000/svg">
 <title/>

 <g>
  <title>background</title>
  <rect fill="none" id="canvas_background" height="402" width="582" y="-1" x="-1"/>
 </g>
 <g>
  <title>Layer 1</title>
  <path fill="#ffffff" id="svg_1" d="m94.321813,42.89l-42.53,-21.27a3.83,3.83 0 0 0 -3.13,0l-42.52,21.27a1.32,1.32 0 0 0 0,2.51l6.43,3.21l-0.34,0l0,35.54a2.8,2.8 0 0 0 -1.11,1.17l-2.78,5.62a2.81,2.81 0 0 0 2.51,4.06l5.63,0a2.81,2.81 0 0 0 2.52,-4.07l-2.77,-5.61a2.8,2.8 0 0 0 -1.11,-1.17l0,-34.29l7,3.52l0,17.38c0,3.94 3,7.6 8.42,10.31c5.28,2.64 12.28,4.09 19.71,4.09s14.43,-1.45 19.71,-4.09c5.43,-2.71 8.42,-6.38 8.42,-10.31l0,-17.38l16,-8a1.32,1.32 0 0 0 0,-2.51l-0.06,0.02zm-77.84,49.31l-5.63,0l2.81,-5.62l2.82,5.62zm59.06,-21.44c0,2.82 -2.44,5.59 -6.86,7.8c-4.89,2.44 -11.45,3.8 -18.45,3.8s-13.56,-1.36 -18.45,-3.8c-4.42,-2.21 -6.86,-5 -6.86,-7.8l0,-16l23.74,11.9a3.83,3.83 0 0 0 3.13,0l23.75,-11.88l0,15.98zm-25,-22.61a1,1 0 0 1 -0.32,0a1.12,1.12 0 0 1 -0.31,0l-40,-20l40,-20a1,1 0 0 1 0.32,0a1.12,1.12 0 0 1 0.31,0l40,20l-40,20z"/>
 </g>
</svg>